<svg xmlns="http://www.w3.org/2000/svg"
     xmlns:xlink="http://www.w3.org/1999/xlink"
     width="900" height="220" viewBox="0 0 900 220">

    <defs>
        <symbol id="banner" viewBox="0 0 460 460" preserveAspectRatio="xMidYMid meet">
            <g transform="translate(0.000000,460.000000) scale(0.100000,-0.100000)" fill="#458B68" stroke="none">
                <path d="M910 4165 l0 -275 265 0 265 0 0 275 0 275 -265 0 -265 0 0 -275z
m480 -5 l0 -220 -215 0 -215 0 0 220 0 220 215 0 215 0 0 -220z"/>
                <path d="M1556 4432 c-3 -3 -6 -126 -6 -274 l0 -268 270 0 270 0 -2 273 -3
272 -262 2 c-144 0 -264 -1 -267 -5z m474 -272 l0 -220 -210 0 -210 0 0 220 0
220 210 0 210 0 0 -220z"/>
                <path d="M2208 4433 c-17 -4 -18 -26 -18 -274 l0 -269 270 0 270 0 -2 232 -3
232 -75 23 c-133 41 -385 73 -442 56z m248 -64 c32 -5 94 -19 137 -31 l77 -20
0 -189 0 -189 -210 0 -210 0 0 220 0 220 73 0 c40 0 100 -5 133 -11z"/>
                <path d="M2830 4095 l0 -205 260 0 c166 0 260 4 260 10 0 18 -203 215 -270
262 -77 54 -222 138 -238 138 -9 0 -12 -57 -12 -205z m140 74 c79 -51 183
-134 235 -188 39 -41 39 -41 -138 -41 l-177 0 0 135 c0 74 4 135 8 135 5 0 37
-18 72 -41z"/>
                <path d="M270 3535 l0 -275 268 2 267 3 0 270 0 270 -267 3 -268 2 0 -275z
m480 -5 l0 -220 -210 0 -210 0 0 220 0 220 210 0 210 0 0 -220z"/>
                <path d="M910 3535 l0 -275 265 0 265 0 0 275 0 275 -265 0 -265 0 0 -275z
m478 -2 l-3 -218 -210 0 -210 0 -3 218 -2 217 215 0 215 0 -2 -217z"/>
                <path d="M1550 3535 l0 -275 268 2 267 3 3 273 2 272 -270 0 -270 0 0 -275z
m316 215 l164 0 0 -220 0 -220 -210 0 -210 0 0 219 c0 242 -2 235 64 225 16
-2 102 -4 192 -4z"/>
                <path d="M2190 3535 l0 -275 270 0 270 0 0 275 0 275 -270 0 -270 0 0 -275z
m480 0 l0 -225 -210 0 -210 0 0 220 0 220 203 3 c111 1 205 3 210 5 4 1 7 -99
7 -223z"/>
                <path d="M2830 3535 l0 -275 275 0 275 0 0 275 0 275 -275 0 -275 0 0 -275z
m488 -2 l-3 -218 -210 0 -210 0 -3 218 -2 217 215 0 215 0 -2 -217z"/>
                <path d="M3465 3705 c6 -44 33 -106 75 -172 13 -20 12 -25 -8 -46 -17 -18 -62
-116 -62 -135 0 -1 39 37 88 85 102 104 171 157 267 208 85 45 88 47 44 39
-95 -17 -190 -57 -242 -102 -22 -20 -48 2 -119 103 -50 70 -50 70 -43 20z"/>
                <path d="M3654 3399 c-19 -21 -18 -22 13 -77 26 -48 36 -57 63 -60 31 -3 31
-3 5 48 -14 28 -34 64 -44 80 -18 30 -18 30 -37 9z"/>
                <path d="M270 2903 l0 -278 270 0 270 0 -3 275 -2 275 -267 3 -268 2 0 -277z
m480 -3 l0 -220 -209 0 c-208 0 -209 0 -214 23 -3 12 -4 101 -1 197 2 96 4
185 4 198 0 22 0 22 210 22 l210 0 0 -220z"/>
                <path d="M910 2903 l0 -278 265 0 265 0 0 278 0 277 -265 0 -265 0 0 -277z
m480 -3 l0 -220 -215 0 -215 0 0 220 0 220 215 0 215 0 0 -220z"/>
                <path d="M2835 3167 c-3 -7 -4 -131 -3 -277 l3 -265 270 2 270 3 3 275 2 275
-270 0 c-209 0 -272 -3 -275 -13z m485 -267 l0 -220 -215 0 -215 0 0 220 0
220 215 0 215 0 0 -220z"/>
                <path d="M3475 3167 c-3 -7 -4 -131 -3 -277 l3 -264 242 -1 c214 -1 242 1 239
15 -10 31 -46 192 -46 201 0 22 299 129 361 129 16 0 29 5 29 10 0 6 -36 10
-88 10 -96 0 -213 -25 -281 -59 -40 -21 -40 -21 -61 52 -36 124 -52 172 -63
185 -14 17 -326 17 -332 -1z m318 -129 c14 -46 40 -137 57 -203 17 -66 33
-128 36 -137 5 -17 -8 -18 -175 -18 l-181 0 0 220 0 220 118 0 c118 0 118 0
145 -82z"/>
                <path d="M1962 3083 c-16 -3 -43 -35 -89 -105 -58 -89 -130 -234 -121 -243 2
-2 33 32 68 77 67 83 243 258 260 258 6 0 10 3 10 8 0 8 -93 12 -128 5z"/>
                <path d="M2370 3028 c-14 -18 -44 -55 -68 -82 -23 -28 -66 -84 -94 -124 -75
-109 -161 -293 -95 -206 123 166 288 302 399 329 26 7 26 8 -40 61 -37 29 -69
54 -72 54 -3 0 -16 -15 -30 -32z"/>
                <path d="M2585 2682 c-101 -68 -233 -173 -285 -227 -45 -47 -45 -47 9 -15 84
49 203 107 288 141 43 17 82 34 87 39 8 8 -13 110 -23 110 -3 0 -38 -22 -76
-48z"/>
                <path d="M0 2515 c0 -24 3 -25 55 -25 55 0 55 0 55 -220 0 -220 0 -220 -55
-220 -54 0 -55 0 -55 -30 0 -30 0 -30 85 -30 l85 0 0 275 0 275 -85 0 c-84 0
-85 0 -85 -25z"/>
                <path d="M270 2265 l0 -275 270 0 269 0 -2 273 -2 272 -267 3 -268 2 0 -275z
m480 5 l0 -220 -209 0 c-209 0 -209 0 -214 33 -7 44 -1 383 8 396 4 7 76 11
211 11 l204 0 0 -220z"/>
                <path d="M910 2265 l0 -275 236 0 c235 0 235 0 249 33 37 90 50 208 46 440
l-1 77 -265 0 -265 0 0 -275z m478 135 c4 -90 -12 -250 -30 -312 -11 -38 -11
-38 -205 -38 l-193 0 0 214 c0 253 -31 224 240 222 l185 -1 3 -85z"/>
                <path d="M2837 2533 c-4 -3 -7 -127 -7 -275 l0 -268 275 0 275 0 0 275 0 275
-268 0 c-148 0 -272 -3 -275 -7z m481 -265 l2 -218 -215 0 -215 0 0 213 c0
118 2 216 4 218 3 2 98 4 213 4 l208 0 3 -217z"/>
                <path d="M3477 2533 c-4 -3 -7 -127 -7 -275 l0 -268 255 0 255 0 0 275 0 275
-248 0 c-137 0 -252 -3 -255 -7z m441 -272 c2 -201 1 -223 -14 -217 -8 3 -96
6 -195 6 l-179 0 0 213 c0 118 3 216 6 220 3 3 90 5 193 4 l186 -2 3 -224z"/>
                <path d="M4073 2303 c4 -19 9 -38 12 -41 3 -3 51 -9 108 -13 98 -6 172 -21
268 -54 67 -23 26 6 -86 60 -83 40 -172 66 -269 79 -38 5 -38 5 -33 -31z"/>
                <path d="M2690 2263 c-14 -7 -86 -41 -160 -77 -124 -59 -286 -154 -277 -162 1
-2 46 12 98 32 51 19 154 53 228 75 74 21 136 41 138 43 2 2 3 26 1 53 -3 49
-3 49 -28 36z"/>
                <path d="M1507 1949 c-10 -28 -17 -52 -15 -54 2 -1 23 -13 48 -25 68 -35 139
-90 208 -164 34 -37 62 -64 62 -60 0 15 -78 143 -118 194 -41 51 -150 159
-162 160 -3 0 -13 -23 -23 -51z"/>
                <path d="M2 1883 c3 -26 7 -28 56 -31 52 -3 52 -3 52 -213 0 -209 0 -209 -37
-210 -65 -2 -68 -3 -71 -31 -3 -28 -3 -28 82 -28 l86 0 0 270 0 270 -86 0
c-85 0 -85 0 -82 -27z"/>
                <path d="M270 1640 l0 -270 193 0 c187 0 301 14 332 40 8 7 11 82 11 252 l-1
243 -267 3 -268 2 0 -270z m480 10 c0 -235 22 -216 -247 -223 -197 -5 -177
-29 -174 203 0 63 1 139 1 168 0 52 0 52 210 52 l210 0 0 -200z"/>
                <path d="M910 1680 c0 -264 -12 -245 105 -167 118 80 239 214 299 334 14 29
26 55 26 58 0 3 -97 5 -215 5 l-215 0 0 -230z m334 158 c-52 -89 -169 -219
-241 -270 -43 -29 -43 -29 -43 127 l0 155 146 0 c113 0 144 -3 138 -12z"/>
                <path d="M2828 1823 c-8 -138 -62 -272 -159 -391 l-50 -62 323 0 c323 0 323 0
355 59 52 94 74 188 80 344 l6 137 -275 0 -276 0 -4 -87z m492 -43 c0 -94 -24
-210 -60 -287 -29 -63 -29 -63 -274 -63 l-244 0 44 74 c52 86 93 198 101 270
2 28 6 57 9 64 2 9 54 12 214 12 l210 0 0 -70z"/>
                <path d="M3470 1772 c0 -153 -18 -241 -71 -344 l-29 -58 219 0 218 0 36 78
c53 116 127 380 127 451 0 8 -76 11 -250 11 l-250 0 0 -138z m425 41 c-10 -70
-70 -270 -98 -331 -24 -52 -24 -52 -176 -55 -83 -1 -151 0 -151 3 0 3 9 30 21
60 26 68 49 204 49 292 0 68 0 68 178 71 97 1 179 4 181 5 2 1 0 -19 -4 -45z"/>
                <path d="M2490 1783 c-134 -13 -314 -56 -342 -82 -4 -3 48 -2 114 3 113 9 287
-1 380 -20 24 -5 28 -1 47 41 11 26 18 51 15 56 -5 9 -139 10 -214 2z"/>
                <path d="M4018 1710 c-1 -16 -2 -38 -2 -47 -1 -13 14 -19 72 -29 87 -15 213
-63 301 -116 75 -45 83 -47 50 -12 -72 79 -245 187 -348 218 -71 21 -71 21
-73 -14z"/>
                <path d="M1220 1535 c-34 -35 -34 -35 14 -83 77 -75 131 -163 168 -272 18 -55
18 -55 15 25 -5 100 -38 197 -100 293 -26 40 -50 72 -55 72 -4 0 -23 -16 -42
-35z"/>
                <path d="M1944 1451 c4 -6 17 -11 29 -11 69 -1 254 -71 330 -126 51 -37 51
-37 84 2 18 22 33 42 33 45 0 11 -97 49 -178 70 -90 24 -309 39 -298 20z"/>
                <path d="M817 1300 c-51 -10 -52 -12 -23 -62 49 -84 81 -190 102 -343 7 -50 7
-50 15 -10 23 119 -10 428 -45 424 -6 -1 -28 -5 -49 -9z"/>
                <path d="M336 1249 c-16 -81 3 -266 37 -369 22 -65 22 -65 28 80 6 143 13 194
43 278 15 42 15 42 -43 42 -57 0 -59 -1 -65 -31z"/>
                <path d="M2445 1229 c-77 -53 -230 -131 -342 -173 -73 -28 -73 -28 -73 -177
l0 -149 265 0 265 0 0 275 c0 321 6 309 -115 224z m55 -239 l0 -210 -205 0
-206 0 3 107 c3 107 3 107 53 126 83 30 270 125 310 157 21 16 39 30 41 30 2
0 4 -94 4 -210z"/>
                <path d="M2660 1005 l0 -275 218 1 c121 1 241 6 272 12 55 12 55 12 58 275 l2
262 -275 0 -275 0 0 -275z m498 7 c3 -212 3 -212 -24 -222 -15 -6 -106 -9
-223 -8 l-196 3 -3 190 c-5 284 -30 256 226 253 l217 -3 3 -213z"/>
                <path d="M3310 1045 c0 -129 3 -235 6 -235 41 0 280 235 355 350 87 133 102
120 -146 120 l-215 0 0 -235z m330 173 c-1 -30 -130 -181 -244 -287 -26 -24
-26 -24 -26 137 l0 162 135 0 c102 0 135 -3 135 -12z"/>
                <path d="M3837 1207 c-9 -28 -15 -51 -14 -51 60 -15 253 -151 316 -223 48 -53
52 -48 14 16 -62 107 -158 213 -254 278 -46 32 -46 32 -62 -20z"/>
                <path d="M1651 1212 c101 -46 164 -87 207 -136 31 -36 31 -36 82 -12 51 24 51
24 19 50 -80 68 -213 121 -325 131 -69 6 -69 6 17 -33z"/>
                <path d="M1870 937 c-30 -19 -86 -52 -125 -75 -38 -22 -92 -61 -120 -86 -50
-46 -50 -46 128 -46 l177 0 0 120 c0 66 -1 120 -3 120 -1 0 -27 -15 -57 -33z
m10 -117 c0 -40 0 -40 -82 -40 -92 0 -92 2 7 51 76 37 75 37 75 -11z"/>
                <path d="M3523 836 c-41 -33 -41 -33 24 -82 98 -74 187 -181 244 -292 25 -50
28 -53 23 -22 -14 76 -52 179 -92 246 -49 84 -128 184 -145 183 -7 0 -31 -15
-54 -33z"/>
                <path d="M1210 840 c-19 -5 -55 -17 -80 -28 -45 -19 -45 -19 60 -24 73 -4 127
-13 177 -30 73 -24 73 -24 110 14 20 21 35 39 32 41 -31 25 -237 43 -299 27z"/>
                <path d="M1418 569 c-104 -108 -201 -255 -252 -384 -15 -38 -15 -39 2 -15 161
231 293 360 454 441 32 16 58 30 58 32 0 1 -42 3 -93 4 -92 2 -92 2 -169 -78z"/>
                <path d="M3190 637 c-25 -6 -46 -11 -48 -12 -2 -2 10 -24 26 -51 54 -93 104
-249 119 -367 7 -62 7 -62 14 -17 18 108 4 256 -36 390 -21 69 -21 68 -75 57z"/>
                <path d="M1905 605 c-62 -96 -106 -262 -104 -395 0 -65 0 -65 25 24 40 147
101 264 185 360 29 34 29 34 -32 32 -50 -1 -64 -5 -74 -21z"/>
                <path d="M2328 600 c-16 -42 -38 -169 -38 -223 0 -71 21 -228 30 -222 4 2 10
39 13 82 7 109 42 247 80 324 33 65 33 65 -21 65 -49 -1 -55 -3 -64 -26z"/>
                <path d="M2730 605 c-31 -82 -2 -323 51 -427 26 -51 30 -46 17 22 -22 124 -3
300 46 410 5 12 -4 16 -49 18 -51 3 -56 1 -65 -23z"/>
            </g>
        </symbol>
    </defs>

    <use href="#banner" xlink:href="#banner" x="90" y="70" width="128" height="128"
         transform="rotate(180 214 110)"/>

    <use href="#banner" xlink:href="#banner" x="562" y="55" width="128" height="128"/>

    <text x="450" y="90" text-anchor="middle" fill="#24292F"
          font-family="Inter,Segoe UI,Arial,sans-serif" font-size="48" font-weight="700">
        The Matrix
    </text>
    <text x="450" y="135" text-anchor="middle" fill="#24292F"
          font-family="Inter,Segoe UI,Arial,sans-serif" font-size="48" font-weight="700">
        Centipede
    </text>
    <text x="450" y="170" text-anchor="middle" fill="#57606A"
          font-family="Inter,Segoe UI,Arial,sans-serif" font-size="36" opacity="0.7">
        (New Sequence)
    </text>
</svg>

